:SAMPLES-PER-SECOND 24
:FULLY-SPECIFIED
:DEGREES
439
root  0.622053 39.2228 41.809 172.05 -71.2931 -176.937
RightUpLeg  -11.7737 -13.0263 -19.8617
RightLeg  39.325 -5.32291 -4.88949
RightFoot  8.61872 -0.800904 4.87963
RightToes  -1.74623e-010 0 -2.59999e-017
Spine  6.6037 -0.864796 -10.5166
Spine1  13.698 -3.66799 4.55006
HEad  -20.869 -38.8599 20.3835
LeftShoulder1  2.01577 -3.18648 -23.8979
LeftArm  18.5164 3.10839 -39.6759
LeftForeArm  125.385 -75.001 -135.867
LeftHand  0.170637 7.4218 11.1287
RightShoulder  4.06869 6.33793 35.4376
RightArm  16.958 -32.148 35.2836
RightForeArm  4.40468 20.7634 5.81588
RightHand  0.0823645 -2.48842 3.97869
LeftUpLeg  -6.61318 5.07524 6.19245
LeftLeg  21.6231 3.41261 1.67749
LeftFoot  -9.64104 0.131069 -4.90803
LeftToes  -6.27559e-011 -2.10356e-011 8.24929e-012
440
root  0.443353 39.1593 40.7646 173.337 -71.418 -178.199
RightUpLeg  -9.79423 -7.89906 -22.2074
RightLeg  29.5876 -6.31638 -4.09188
RightFoot  9.26476 -0.793758 4.73097
RightToes  -1.74623e-010 0 -2.59999e-017
Spine  5.72222 -0.851101 -10.7187
Spine1  13.5807 -3.60278 5.16771
HEad  -20.8548 -39.8962 20.3363
LeftShoulder1  2.00757 -3.14828 -23.9502
LeftArm  18.3193 4.23647 -38.197
LeftForeArm  124.901 -74.9557 -135.912
LeftHand  0.180319 7.70821 10.3592
RightShoulder  3.86062 6.16294 34.0516
RightArm  12.7315 -31.0953 32.9867
RightForeArm  3.92984 24.6802 5.12859
RightHand  -0.0121078 -3.02465 0.23947
LeftUpLeg  -5.64033 5.29559 7.4441
LeftLeg  20.993 2.90943 1.47478
LeftFoot  -9.23512 0.173615 -6.42623
LeftToes  -6.27559e-011 -2.10356e-011 8.24929e-012
441
root  0.317807 39.0165 39.6383 174.275 -71.2873 -179.247
RightUpLeg  -8.03929 -5.20855 -24.0126
RightLeg  20.3346 -1.96441 -1.01278
RightFoot  13.683 -1.29994 6.27985
RightToes  -1.74623e-010 0 -2.59999e-017
Spine  5.06452 -0.787357 -10.3832
Spine1  13.6929 -3.39633 5.43899
HEad  -21.6107 -40.755 20.8354
LeftShoulder1  1.97387 -3.04734 -23.8973
LeftArm  18.0367 4.43566 -37.3147
LeftForeArm  125.279 -74.8706 -136.248
LeftHand  0.159186 7.74715 9.23608
RightShoulder  3.6945 5.99211 33.0266
RightArm  3.32045 -29.4026 30.0159
RightForeArm  9.98251 31.2453 6.29692
RightHand  -0.0520747 -4.10469 -2.87841
LeftUpLeg  -4.81181 5.9694 9.04162
LeftLeg  20.9972 2.20211 1.23412
LeftFoot  -9.37112 0.191094 -7.84351
LeftToes  -6.27559e-011 -2.10356e-011 8.24929e-012
442
root  0.270278 38.8146 38.3909 174.791 -70.7164 179.733
RightUpLeg  -6.92498 -5.94537 -24.7664
RightLeg  13.7808 2.7779 0.40516
RightFoot  18.0786 -2.32483 9.30983
RightToes  -1.74623e-010 0 -2.59999e-017
Spine  5.19162 -0.766073 -9.54143
Spine1  13.5519 -3.08821 4.9966
HEad  -22.6719 -41.3302 21.4617
LeftShoulder1  1.9249 -2.95675 -23.5439
LeftArm  17.263 4.97066 -37.1843
LeftForeArm  125.182 -74.906 -136.121
LeftHand  0.145309 7.58921 9.15137
RightShoulder  3.56117 5.85261 32.1804
RightArm  -5.79182 -27.327 27.5014
RightForeArm  16.9225 40.6792 8.54331
RightHand  -0.0372442 -5.11973 -6.04636
LeftUpLeg  -3.49863 6.06966 10.887
LeftLeg  21.0408 1.8795 1.1407
LeftFoot  -9.55624 0.207497 -9.62838
LeftToes  -6.27559e-011 -2.10356e-011 8.24929e-012
443
root  0.306534 38.4389 36.9061 175.593 -69.836 178.038
RightUpLeg  -6.49816 -8.77492 -24.7676
RightLeg  12.7518 6.26368 1.06969
RightFoot  15.6457 -3.52391 15.2028
RightToes  -1.74623e-010 0 -2.59999e-017
Spine  5.74385 -0.753985 -9.43292
Spine1  13.2981 -2.98533 4.70064
HEad  -22.9567 -41.5774 21.1153
LeftShoulder1  1.93463 -3.01312 -23.4296
LeftArm  16.0479 6.05219 -37.1377
LeftForeArm  124.425 -75.0817 -135.423
LeftHand  0.168348 7.63335 10.0828
RightShoulder  3.37224 5.65843 30.9125
RightArm  -13.0332 -24.5638 26.1644
RightForeArm  22.1513 51.4846 12.3642
RightHand  -0.0258344 -5.33603 -8.80776
LeftUpLeg  -1.97239 5.69242 12.9145
LeftLeg  21.7165 1.85865 1.16497
LeftFoot  -10.1116 0.188188 -11.9192
LeftToes  -6.27559e-011 -2.10356e-011 8.24929e-012
444
root  0.471439 37.8509 35.2252 175.935 -68.5464 176.592
RightUpLeg  -7.17556 -10.0467 -24.0652
RightLeg  17.8654 8.89833 2.97517
RightFoot  6.1744 -2.95751 19.4408
RightToes  -1.74623e-010 0 -2.59999e-017
Spine  6.58316 -0.649814 -9.18824
Spine1  13.3491 -2.76131 3.90641
HEad  -23.5833 -41.3472 20.7383
LeftShoulder1  1.95757 -3.07314 -23.512
LeftArm  14.7417 6.34789 -36.7529
LeftForeArm  124.549 -75.297 -134.757
LeftHand  0.200074 7.91484 10.4386
RightShoulder  3.15958 5.39723 29.5815
RightArm  -18.9441 -20.8099 25.4556
RightForeArm  27.7279 62.9832 19.752
RightHand  -0.0355486 -5.19786 -9.95592
LeftUpLeg  -0.590439 6.37057 15.7414
LeftLeg  23.3545 1.43452 1.02444
LeftFoot  -11.2346 0.07936 -14.2622
LeftToes  -6.27559e-011 -2.10356e-011 8.24929e-012
445
root  0.734033 37.2636 33.6767 176.157 -66.4624 175.49
RightUpLeg  -10.0972 -11.6828 -22.6395
RightLeg  26.4306 11.769 6.08942
RightFoot  -2.42934 -1.34293 16.9047
RightToes  -1.74623e-010 0 -2.59999e-017
Spine  7.45347 -0.732649 -7.30296
Spine1  14.0569 -2.13516 1.41296
HEad  -26.0076 -40.3976 21.4626
LeftShoulder1  1.95698 -2.99744 -23.867
LeftArm  13.1467 5.51904 -36.3721
LeftForeArm  124.307 -75.6841 -133.403
LeftHand  0.207203 8.05466 10.2367
RightShoulder  3.06383 5.27745 28.9631
RightArm  -23.9675 -15.323 23.8778
RightForeArm  38.9574 72.8061 34.3906
RightHand  -0.0422613 -5.12954 -10.6656
LeftUpLeg  0.868434 5.96314 18.1015
LeftLeg  24.5672 2.03329 1.36572
LeftFoot  -11.7227 0.0146425 -16.4971
LeftToes  -6.27559e-011 -2.10356e-011 8.24929e-012
446
root  0.930835 36.9599 32.4997 177.794 -64.0934 173.673
RightUpLeg  -14.0148 -13.0828 -21.6559
RightLeg  33.6833 13.3079 9.14742
RightFoot  -5.89918 -0.657805 13.077
RightToes  -1.74623e-010 0 -2.59999e-017
Spine  7.61837 -1.30925 -5.19218
Spine1  15.0868 -1.81102 -1.21711
HEad  -28.4364 -39.1048 21.9327
LeftShoulder1  2.03021 -3.02555 -24.9047
LeftArm  11.6108 4.87137 -37.1162
LeftForeArm  120.503 -76.6105 -129.014
LeftHand  0.230623 8.11312 10.9706
RightShoulder  3.07721 5.32725 28.9164
RightArm  -27.9443 -8.13132 21.193
RightForeArm  52.3394 77.219 51.0951
RightHand  -0.222627 -3.62544 -13.6161
LeftUpLeg  2.22341 3.24002 17.923
LeftLeg  24.389 6.69138 3.64188
LeftFoot  -10.6883 0.152388 -16.0086
LeftToes  -6.27559e-011 -2.10356e-011 8.24929e-012
447
root  0.986736 37.108 31.6872 -179.23 -62.4854 171.207
RightUpLeg  -15.8227 -13.3846 -21.4274
RightLeg  35.4983 14.1801 10.3939
RightFoot  -6.27412 -0.583751 12.1921
RightToes  -1.74623e-010 0 -2.59999e-017
Spine  7.06552 -2.14594 -4.76052
Spine1  15.5679 -2.40958 -1.76057
HEad  -28.8316 -38.2222 20.9727
LeftShoulder1  2.15925 -3.24032 -25.8714
LeftArm  11.804 4.52394 -40.1327
LeftForeArm  111.972 -78.0106 -119.737
LeftHand  0.290832 8.33893 12.422
RightShoulder  3.03888 5.28677 28.6329
RightArm  -30.6072 -1.4137 19.3639
RightForeArm  47.9082 76.6948 49.3908
RightHand  -0.714525 -0.822062 -18.0101
LeftUpLeg  3.04927 2.07268 16.1013
LeftLeg  23.0873 14.3078 6.90021
LeftFoot  -8.14655 0.313317 -9.96071
LeftToes  -6.27559e-011 -2.10356e-011 8.24929e-012
448
root  1.01181 37.6511 31.1734 -175.98 -62.1121 168.71
RightUpLeg  -14.8698 -11.8393 -21.3885
RightLeg  31.8216 13.197 8.46957
RightFoot  -5.64029 -0.643844 12.1228
RightToes  -1.74623e-010 0 -2.59999e-017
Spine  6.69004 -2.9672 -5.59854
Spine1  15.2737 -3.60537 -0.586216
HEad  -28.2483 -37.7845 19.8146
LeftShoulder1  2.18314 -3.37519 -25.5816
LeftArm  14.7007 2.88152 -44.803
LeftForeArm  100.341 -79.1472 -106.899
LeftHand  0.278321 8.2171 12.4521
RightShoulder  2.92982 5.1313 27.9737
RightArm  -32.2247 2.40659 19.602
RightForeArm  31.3396 72.7262 35.9624
RightHand  -1.20075 1.04645 -21.5928
LeftUpLeg  3.2059 5.58468 14.7416
LeftLeg  21.0339 14.2048 6.31115
LeftFoot  -5.76351 0.264383 -4.80308
LeftToes  -6.27559e-011 -2.10356e-011 8.24929e-012
449
root  1.07509 38.3114 30.919 -172.924 -62.9476 166.365
RightUpLeg  -12.7372 -9.42668 -21.4522
RightLeg  26.0834 10.1851 5.17408
RightFoot  -3.75889 -0.852709 12.4342
RightToes  -1.74623e-010 0 -2.59999e-017
Spine  6.89776 -3.73749 -6.54988
Spine1  14.6162 -4.92495 1.13139
HEad  -27.9441 -37.5287 19.3984
LeftShoulder1  2.1037 -3.37834 -24.3589
LeftArm  19.0048 -0.462804 -49.3039
LeftForeArm  91.849 -79.5763 -97.2859
LeftHand  0.141666 7.2527 10.3774
RightShoulder  2.872 5.04868 27.6151
RightArm  -32.9368 3.23675 20.4507
RightForeArm  15.7171 66.1924 25.1348
RightHand  -1.39348 1.25232 -24.219
LeftUpLeg  2.44807 10.4823 13.7315
LeftLeg  20.849 2.89961 1.5575
LeftFoot  -3.91398 0.560647 -8.26724
LeftToes  -6.27559e-011 -2.10356e-011 8.24929e-012
